<svg version="1.2" xmlns="http://www.w3.org/2000/svg" viewBox="0 0 172 172" width="172" height="172">
    <defs>
      <clipPath clipPathUnits="userSpaceOnUse" id="cp1">
        <path d="m-1706-554h4098v2304h-4098z"/>
      </clipPath>
    </defs>
  
    <g clip-path="url(#cp1)">
      <path fill="#8fc741" fill-rule="evenodd" class="a" d="m148.1 167l-14.4-17.1v6.4c0 8.2-6.6 14.8-14.7 14.8h-102.8c-8.1 0-14.7-6.6-14.7-14.8v-141.5c0-8.1 6.6-14.7 14.7-14.7h80.2c0.8 0 1.6 0.3 2.1 0.8l34.3 34.3c0.5 0.4 0.7 1.1 0.8 1.7 0 0.1 0.1 0.1 0.1 0.2 0 0.1 0 0.2 0 0.3 0 0 0 42.3 0 42.4 7.7 12.6 7.6 28.6-0.2 41.3l33 27.6c0.4 0.2 0.7 0.5 1 0.9 12.4 13.3-7.5 31.2-19.4 17.4zm-24.4-90.7c-6.4-6.4-14.9-9.9-23.9-9.9-9 0-17.5 3.6-23.9 9.9-13.2 13.2-13.2 34.6 0 47.8 6.4 6.4 14.9 9.9 23.9 9.9 9 0 17.5-3.5 23.9-9.9 6.3-6.4 9.9-14.9 9.9-23.9 0-9-3.6-17.5-9.9-23.9zm4.1 80v-13.5l-7.3-8.8c-6.4 3.9-13.5 5.9-20.7 5.9-5.8 0-11.6-1.3-17-3.9h-55.1c-1.6 0-2.9-1.3-2.9-2.9 0-1.6 1.3-3 2.9-3h46.1q-1-0.8-2-1.8c-3.6-3.6-6.2-7.6-8.2-11.9h-35.9c-1.6 0-2.9-1.3-2.9-2.9 0-1.7 1.3-3 2.9-3h33.8c-1.2-4.5-1.6-9.1-1.2-13.7h-32.6c-1.6 0-2.9-1.3-2.9-2.9 0-1.7 1.3-3 2.9-3h33.6c1.2-4.9 3.3-9.5 6.3-13.7h-39.9c-1.6 0-2.9-1.4-2.9-3 0-1.6 1.3-2.9 2.9-2.9h45c7.4-6.9 17-10.7 27.1-10.7 10.6 0 20.6 4.1 28 11.6v-31.9h-31.4c-1.6 0-2.9-1.3-2.9-2.9v-31.4h-77.3c-4.9 0-8.8 4-8.8 8.8v141.5c0 4.9 3.9 8.9 8.8 8.9h102.8c4.9 0 8.8-4 8.8-8.9zm-103-101.7c0-1.6 1.3-3 2.9-3h39.9c1.6 0 2.9 1.4 2.9 3 0 1.6-1.3 2.9-2.9 2.9h-39.9c-1.6 0-2.9-1.3-2.9-2.9z"/>
    </g>
  </svg>
  