<svg version="1.2" xmlns="http://www.w3.org/2000/svg" viewBox="0 0 226 142" width="226" height="142">
    <defs>
      <clipPath clipPathUnits="userSpaceOnUse" id="cp1">
        <path d="m-1706-1496h4098v2304h-4098z"/>
      </clipPath>
    </defs>
    <style>
      
    </style>
    <g clip-path="url(#cp1)">
      <path fill="#655ca8" fill-rule="evenodd" class="a" d="m225.4 86.2c0 30.7-24.9 55.7-55.6 55.7h-124.5c-24.8 0-45-20.2-45-45 0-15.5 8.1-30 21.2-38.2 2.2-15.2 15.4-26.9 31.1-26.9q2.6 0 5.2 0.4c13.1-19.4 34.7-31 58.3-31 22.8 0 44 11 57.3 29.5 13.7 0.9 26.5 6.7 36.2 16.6 10.2 10.5 15.8 24.3 15.8 38.9zm-8.6 0c0-25.3-20.6-46.3-45.9-47-1.4 0-2.7-0.7-3.5-1.9-11.5-17.2-30.7-27.4-51.3-27.4-21.6 0-41.3 11-52.6 29.5-1 1.6-3 2.4-4.9 1.9q-3-0.8-6-0.8c-12 0-21.9 9.3-22.7 21.1-0.1 1.5-1 2.8-2.2 3.5-11.6 6.5-18.8 18.6-18.8 31.8 0 20.1 16.4 36.4 36.4 36.4h124.5c25.9 0 47-21.1 47-47.1zm-141.3-12.2q-0.5 0-1.1-0.1c-2.7-0.6-4.3-3.3-3.7-5.9 4.6-19.8 21.9-33.5 42.2-33.5 10.3 0 20.1 3.6 27.9 10.2l3.2-1.9c2.9-1.8 5.4-0.5 5.5 2.9l0.5 17.2c0.1 3.4-2.2 4.9-5.2 3.3l-15.2-8.2c-3-1.6-3.1-4.4-0.2-6.2l2.5-1.5c-5.6-3.9-12.1-5.9-19-5.9-15.7 0-29 10.6-32.6 25.8-0.5 2.3-2.5 3.8-4.8 3.8zm79.5 13.5c-4.5 19.7-21.9 33.5-42.1 33.5-10.4 0-20.2-3.6-28-10.3l-3.2 2c-2.9 1.8-5.4 0.5-5.5-2.9l-0.5-17.2c-0.1-3.4 2.3-4.9 5.3-3.3l15.1 8.2c3 1.6 3.1 4.4 0.2 6.2l-2.4 1.5c5.5 3.8 12.1 5.9 19 5.9 15.6 0 29-10.6 32.5-25.8 0.6-2.7 3.3-4.3 5.9-3.7 2.7 0.6 4.3 3.3 3.7 5.9z"/>
    </g>
  </svg>
  